<mxfile host="app.diagrams.net" modified="2021-12-06T18:02:27.182Z" agent="5.0 (Windows NT 10.0; Win64; x64) AppleWebKit/537.36 (KHTML, like Gecko) Chrome/96.0.4664.45 Safari/537.36" etag="8MZvY4boJQtvHP6J2SQ6" version="15.8.9" type="github">
  <diagram id="UvjCOzgRhScxhyYnDECv" name="Page-1">
    <mxGraphModel dx="496" dy="283" grid="1" gridSize="10" guides="1" tooltips="1" connect="1" arrows="1" fold="1" page="1" pageScale="1" pageWidth="1169" pageHeight="827" math="0" shadow="0">
      <root>
        <mxCell id="0" />
        <mxCell id="1" parent="0" />
        <mxCell id="_mJVA6JVob8ZOXD0O_u_-12" style="edgeStyle=orthogonalEdgeStyle;rounded=0;orthogonalLoop=1;jettySize=auto;html=1;exitX=1;exitY=0.5;exitDx=0;exitDy=0;endArrow=none;endFill=0;" edge="1" parent="1" source="_mJVA6JVob8ZOXD0O_u_-1" target="_mJVA6JVob8ZOXD0O_u_-2">
          <mxGeometry relative="1" as="geometry" />
        </mxCell>
        <mxCell id="_mJVA6JVob8ZOXD0O_u_-15" value="n" style="edgeLabel;html=1;align=center;verticalAlign=middle;resizable=0;points=[];" vertex="1" connectable="0" parent="_mJVA6JVob8ZOXD0O_u_-12">
          <mxGeometry x="-0.692" y="3" relative="1" as="geometry">
            <mxPoint as="offset" />
          </mxGeometry>
        </mxCell>
        <mxCell id="_mJVA6JVob8ZOXD0O_u_-16" value="1" style="edgeLabel;html=1;align=center;verticalAlign=middle;resizable=0;points=[];" vertex="1" connectable="0" parent="_mJVA6JVob8ZOXD0O_u_-12">
          <mxGeometry x="0.7906" y="-1" relative="1" as="geometry">
            <mxPoint y="-3" as="offset" />
          </mxGeometry>
        </mxCell>
        <mxCell id="_mJVA6JVob8ZOXD0O_u_-1" value="Aluno" style="whiteSpace=wrap;html=1;align=center;" vertex="1" parent="1">
          <mxGeometry x="160" y="151" width="125" height="50" as="geometry" />
        </mxCell>
        <mxCell id="_mJVA6JVob8ZOXD0O_u_-13" style="edgeStyle=orthogonalEdgeStyle;rounded=0;orthogonalLoop=1;jettySize=auto;html=1;exitX=1;exitY=0.5;exitDx=0;exitDy=0;entryX=0;entryY=0.5;entryDx=0;entryDy=0;endArrow=none;endFill=0;" edge="1" parent="1" source="_mJVA6JVob8ZOXD0O_u_-2" target="_mJVA6JVob8ZOXD0O_u_-11">
          <mxGeometry relative="1" as="geometry" />
        </mxCell>
        <mxCell id="_mJVA6JVob8ZOXD0O_u_-17" value="1" style="edgeLabel;html=1;align=center;verticalAlign=middle;resizable=0;points=[];" vertex="1" connectable="0" parent="_mJVA6JVob8ZOXD0O_u_-13">
          <mxGeometry x="-0.732" y="1" relative="1" as="geometry">
            <mxPoint as="offset" />
          </mxGeometry>
        </mxCell>
        <mxCell id="_mJVA6JVob8ZOXD0O_u_-18" value="1" style="edgeLabel;html=1;align=center;verticalAlign=middle;resizable=0;points=[];" vertex="1" connectable="0" parent="_mJVA6JVob8ZOXD0O_u_-13">
          <mxGeometry x="0.8461" relative="1" as="geometry">
            <mxPoint as="offset" />
          </mxGeometry>
        </mxCell>
        <mxCell id="_mJVA6JVob8ZOXD0O_u_-2" value="Professor_orientador" style="whiteSpace=wrap;html=1;align=center;" vertex="1" parent="1">
          <mxGeometry x="370" y="151" width="125" height="50" as="geometry" />
        </mxCell>
        <mxCell id="_mJVA6JVob8ZOXD0O_u_-11" value="Projeto" style="whiteSpace=wrap;html=1;align=center;" vertex="1" parent="1">
          <mxGeometry x="584.5" y="152" width="120" height="48" as="geometry" />
        </mxCell>
      </root>
    </mxGraphModel>
  </diagram>
</mxfile>
